<svg width="15" height="11" viewBox="0 0 15 11" fill="none" xmlns="http://www.w3.org/2000/svg">
<path d="M9.75 5.25C9.75 6.49264 8.74264 7.5 7.5 7.5C6.25736 7.5 5.25 6.49264 5.25 5.25C5.25 4.00736 6.25736 3 7.5 3C8.74264 3 9.75 4.00736 9.75 5.25Z" fill="#433860"/>
<path d="M14.9208 4.91459C13.3022 1.67726 10.4273 0 7.5 0C4.57266 0 1.69784 1.67726 0.0791796 4.91459C-0.0263932 5.12574 -0.0263932 5.37426 0.0791796 5.58541C1.69784 8.82274 4.57266 10.5 7.5 10.5C10.4273 10.5 13.3022 8.82274 14.9208 5.58541C15.0264 5.37426 15.0264 5.12574 14.9208 4.91459ZM7.5 9C5.27341 9 2.99854 7.78441 1.59724 5.25C2.99854 2.71558 5.27341 1.5 7.5 1.5C9.72659 1.5 12.0015 2.71558 13.4028 5.25C12.0015 7.78441 9.72659 9 7.5 9Z" fill="#433860"/>
</svg>
