<svg width="148" height="106" viewBox="0 0 148 106" fill="none" xmlns="http://www.w3.org/2000/svg">
<path d="M119.198 44.8234H113.647L114.625 49.8665L118.808 49.3191C121.29 49.3191 123.499 50.4919 124.887 52.5443C126.274 54.5967 126.548 57.0987 125.629 59.4052L119.394 74.6125L120.664 81.2388L129.265 59.757C132.138 52.5834 126.88 44.8234 119.198 44.8234Z" fill="#C4B2F0"/>
<path d="M114.546 44.9212C114.546 44.9212 120.43 44.0612 124.007 51.4693C121.622 49.8665 118.964 48.811 114.625 49.8665C113.647 44.8235 114.546 44.9212 114.546 44.9212Z" fill="#8E7EB4"/>
<path d="M121.857 68.4356L122.404 76.8993L120.586 80.6913L118.925 74.4169L121.857 68.4356Z" fill="#8E7EB4"/>
<path d="M119.198 44.8234H113.647L114.625 49.8665L118.808 49.3191C121.29 49.3191 123.499 50.4919 124.887 52.5443C126.274 54.5967 126.548 57.0987 125.629 59.4052L119.394 74.6125L120.664 81.2388L129.265 59.757C132.138 52.5834 126.88 44.8234 119.198 44.8234Z" stroke="#2C2543" stroke-width="1.1728" stroke-miterlimit="10" stroke-linecap="round" stroke-linejoin="round"/>
<path d="M114.097 104.988H80.4962C74.3585 104.988 69.7064 100.18 70.7229 94.9021L81.1217 41.0902H113.452L123.851 94.9021C124.887 100.18 120.215 104.988 114.097 104.988Z" fill="#C4B2F0"/>
<path d="M114.097 104.988H80.4962C74.3585 104.988 69.7064 100.18 70.7229 94.9021L81.1217 41.0902H113.452L123.851 94.9021C124.887 100.18 120.215 104.988 114.097 104.988Z" fill="#C4B2F0"/>
<path d="M114.097 104.988H80.4962C74.3585 104.988 69.7064 100.18 70.7229 94.9021L81.1217 41.0902H113.452L123.851 94.9021C124.887 100.18 120.215 104.988 114.097 104.988Z" fill="#C4B2F0"/>
<path d="M90.074 98.3618L91.8528 45.9573L92.0092 41.1097H81.1021L70.7033 94.9216C69.6869 100.199 74.339 105.008 80.4767 105.008H100.668C95.0193 104.988 89.9568 101.939 90.074 98.3618Z" fill="#8E7EB4"/>
<path d="M81.3171 96.9544L87.8653 41.1097H81.1217L70.7229 94.9216C69.7064 100.199 74.3585 105.008 80.4962 105.008H92.1069C85.9692 104.988 80.8089 101.235 81.3171 96.9544Z" fill="#8E7EB4"/>
<path opacity="0.7" d="M113.765 41.4811H81.1023V42.7321H113.765V41.4811Z" fill="#E2D6FF"/>
<path d="M114.097 104.988H80.4962C74.3585 104.988 69.7064 100.18 70.7229 94.9021L81.1217 41.0902H113.452L123.851 94.9021C124.887 100.18 120.215 104.988 114.097 104.988Z" stroke="#2C2543" stroke-width="1.1728" stroke-miterlimit="10" stroke-linecap="round" stroke-linejoin="round"/>
<path d="M113.472 41.0899C109.308 36.9852 103.6 34.4441 97.2869 34.4441C90.9733 34.4441 85.2657 36.9852 81.1023 41.0899H113.472Z" fill="#2C2543"/>
<path d="M113.472 41.0899C109.308 36.9852 103.6 34.4441 97.2869 34.4441C90.9733 34.4441 85.2657 36.9852 81.1023 41.0899H113.472Z" fill="#2C2543"/>
<path d="M81.1023 41.0901H113.472C112.611 40.445 111.673 39.8782 110.676 39.3504L100.453 38.5881C97.9124 38.3926 95.3322 38.4122 92.7912 38.6272L83.8975 39.37C82.9201 39.8782 81.9819 40.4646 81.1023 41.0901Z" fill="#8E7EB4"/>
<g opacity="0.2">
<path opacity="0.2" d="M108.428 37.3174C108.448 37.8647 103.6 36.086 97.2864 36.1251C90.9729 36.086 86.1253 37.8647 86.1448 37.3174C86.1253 36.8483 90.9729 34.229 97.2864 34.2681C103.6 34.229 108.467 36.8483 108.428 37.3174Z" fill="white"/>
</g>
<path d="M113.472 41.0899C109.308 36.9852 103.6 34.4441 97.2869 34.4441C90.9733 34.4441 85.2657 36.9852 81.1023 41.0899H113.472Z" stroke="#2C2543" stroke-width="1.1728" stroke-miterlimit="10" stroke-linecap="round" stroke-linejoin="round"/>
<path d="M78.5221 54.9292L71.4462 42.9666C71.0553 42.3216 71.5244 41.4811 72.2867 41.4811H81.1023L78.5221 54.9292Z" fill="#8E7EB4"/>
<path d="M79.0303 41.4811L78.1703 45.9377C77.8966 47.3646 74.8864 48.4397 74.1437 47.1692L71.9153 43.0644C71.153 43.0644 71.0748 42.2825 71.4658 42.9471L78.5416 54.9096L81.1218 41.4615H79.0303V41.4811Z" fill="#433860"/>
<path opacity="0.7" d="M71.4459 42.3998L71.7782 42.7516H80.711L81.1019 41.5006H72.2864C71.5436 41.4811 71.0745 41.9893 71.4459 42.3998Z" fill="#E2D6FF"/>
<path d="M78.5221 54.9292L71.4462 42.9666C71.0553 42.3216 71.5244 41.4811 72.2867 41.4811H81.1023L78.5221 54.9292Z" stroke="#2C2543" stroke-width="1.1728" stroke-miterlimit="10" stroke-linecap="round" stroke-linejoin="round"/>
<path d="M92.5176 34.9327V32.5676C92.5176 29.9288 94.6482 27.7982 97.287 27.7982C99.9258 27.7982 102.056 29.9288 102.056 32.5676V34.9327" stroke="#2C2543" stroke-width="1.1728" stroke-miterlimit="10" stroke-linecap="round" stroke-linejoin="round"/>
<path d="M108.898 50.9219L115.055 87.0636" stroke="#2C2543" stroke-width="1.1728" stroke-miterlimit="10" stroke-linecap="round" stroke-linejoin="round"/>
<g opacity="0.4">
<path opacity="0.15" d="M1 104.988H146.505" stroke="#2C2543" stroke-width="1.1728" stroke-miterlimit="10" stroke-linecap="round" stroke-linejoin="round"/>
<g opacity="0.15">
<path opacity="0.15" d="M19.6475 62.6694V46.778C19.6475 41.1681 24.2018 36.6138 29.8117 36.6138H56.0628C61.6727 36.6138 66.2271 41.1681 66.2271 46.778V62.8258" stroke="#2C2543" stroke-width="1.1728" stroke-miterlimit="10" stroke-linecap="round" stroke-linejoin="round"/>
<path opacity="0.15" d="M76.7433 100.238H64.0575V65.797C64.0575 64.0769 65.4649 62.6696 67.185 62.6696H73.6158C75.3359 62.6696 76.7433 64.0769 76.7433 65.797V100.238V100.238Z" stroke="#2C2543" stroke-width="1.1728" stroke-miterlimit="10" stroke-linecap="round" stroke-linejoin="round"/>
<path opacity="0.15" d="M71.5634 100.238H64.0575V104.929H71.5634V100.238Z" stroke="#2C2543" stroke-width="1.1728" stroke-miterlimit="10" stroke-linecap="round" stroke-linejoin="round"/>
<path opacity="0.15" d="M21.7194 100.238H14.2135V104.929H21.7194V100.238Z" stroke="#2C2543" stroke-width="1.1728" stroke-miterlimit="10" stroke-linecap="round" stroke-linejoin="round"/>
<path opacity="0.15" d="M21.7389 100.238H9.0531V65.797C9.0531 64.0769 10.4605 62.6696 12.1806 62.6696H18.6114C20.3315 62.6696 21.7389 64.0769 21.7389 65.797V100.238Z" stroke="#2C2543" stroke-width="1.1728" stroke-miterlimit="10" stroke-linecap="round" stroke-linejoin="round"/>
<path opacity="0.15" d="M21.7975 90.152V78.0526C21.7975 76.0393 23.4199 74.4169 25.4332 74.4169H60.4412C62.4545 74.4169 64.0768 76.0393 64.0768 78.0526V90.152H21.7975Z" stroke="#2C2543" stroke-width="1.1728" stroke-miterlimit="10" stroke-linecap="round" stroke-linejoin="round"/>
<path opacity="0.15" d="M64.0573 90.152H21.7975V99.0848H64.0573V90.152Z" stroke="#2C2543" stroke-width="1.1728" stroke-miterlimit="10" stroke-linecap="round" stroke-linejoin="round"/>
<path opacity="0.15" d="M42.9276 57.6463C43.748 57.6463 44.4131 56.9812 44.4131 56.1608C44.4131 55.3403 43.748 54.6752 42.9276 54.6752C42.1071 54.6752 41.442 55.3403 41.442 56.1608C41.442 56.9812 42.1071 57.6463 42.9276 57.6463Z" stroke="#2C2543" stroke-width="1.1728" stroke-miterlimit="10" stroke-linecap="round" stroke-linejoin="round"/>
</g>
<path opacity="0.15" d="M92.1457 1H64.2527V21.4067H92.1457V1Z" stroke="#2C2543" stroke-width="1.1728" stroke-miterlimit="10" stroke-linecap="round" stroke-linejoin="round"/>
<path opacity="0.15" d="M89.4289 3.7168H66.9698V18.6895H89.4289V3.7168Z" stroke="#2C2543" stroke-width="1.1728" stroke-miterlimit="10" stroke-linecap="round" stroke-linejoin="round"/>
<path opacity="0.15" d="M71.0156 15.6989L74.5731 9.52222L78.1306 15.6989H71.0156Z" stroke="#2C2543" stroke-width="1.1728" stroke-miterlimit="10" stroke-linecap="round" stroke-linejoin="round"/>
<path opacity="0.15" d="M76.3518 12.6106L78.7169 8.5058L82.8804 15.699H78.1306" stroke="#2C2543" stroke-width="1.1728" stroke-miterlimit="10" stroke-linecap="round" stroke-linejoin="round"/>
<path opacity="0.15" d="M84.4639 9.52227C85.3383 9.52227 86.0472 8.81341 86.0472 7.93899C86.0472 7.06457 85.3383 6.35571 84.4639 6.35571C83.5895 6.35571 82.8806 7.06457 82.8806 7.93899C82.8806 8.81341 83.5895 9.52227 84.4639 9.52227Z" stroke="#2C2543" stroke-width="1.1728" stroke-miterlimit="10" stroke-linecap="round" stroke-linejoin="round"/>
<path opacity="0.15" d="M141.071 26.88H125.551V34.4445H141.071" stroke="#2C2543" stroke-width="1.1728" stroke-miterlimit="10" stroke-linecap="round" stroke-linejoin="round"/>
<path opacity="0.15" d="M110.051 34.4442H125.551" stroke="#2C2543" stroke-width="1.1728" stroke-miterlimit="10" stroke-linecap="round" stroke-linejoin="round"/>
<path opacity="0.15" d="M125.551 26.88H119.628" stroke="#2C2543" stroke-width="1.1728" stroke-miterlimit="10" stroke-linecap="round" stroke-linejoin="round"/>
<path opacity="0.15" d="M133.312 34.4442H117.811V42.0087H133.312V34.4442Z" stroke="#2C2543" stroke-width="1.1728" stroke-miterlimit="10" stroke-linecap="round" stroke-linejoin="round"/>
<path opacity="0.15" d="M138.647 42.0479H125.551V49.6124H130.574" stroke="#2C2543" stroke-width="1.1728" stroke-miterlimit="10" stroke-linecap="round" stroke-linejoin="round"/>
<path opacity="0.15" d="M125.551 42.0283H110.051V49.5929H125.551V42.0283Z" stroke="#2C2543" stroke-width="1.1728" stroke-miterlimit="10" stroke-linecap="round" stroke-linejoin="round"/>
</g>
<path d="M38.3533 76.8995C33.0366 76.8995 28.7363 81.1997 28.7363 86.5164C28.7363 91.8331 33.0366 96.1334 38.3533 96.1334C43.6699 96.1334 47.9702 91.8331 47.9702 86.5164V76.8995H38.3533ZM42.5753 86.5164C42.5753 88.8425 40.6793 90.7385 38.3533 90.7385C36.0272 90.7385 34.1312 88.8425 34.1312 86.5164C34.1312 84.1904 36.0272 82.2943 38.3533 82.2943H42.5753V86.5164Z" fill="#8E7EB4"/>
<path d="M38.3533 76.8995C33.0366 76.8995 28.7363 81.1997 28.7363 86.5164C28.7363 91.8331 33.0366 96.1334 38.3533 96.1334C43.6699 96.1334 47.9702 91.8331 47.9702 86.5164V76.8995H38.3533ZM42.5753 86.5164C42.5753 88.8425 40.6793 90.7385 38.3533 90.7385C36.0272 90.7385 34.1312 88.8425 34.1312 86.5164C34.1312 84.1904 36.0272 82.2943 38.3533 82.2943H42.5753V86.5164Z" fill="#8E7EB4"/>
<g opacity="0.4">
<path opacity="0.7" d="M29.6356 87.4544C29.6356 82.1377 33.9359 77.8375 39.2526 77.8375H47.7749V76.5083H38.158C32.8413 76.5083 28.541 80.8086 28.541 86.1252C28.541 88.764 29.5965 91.1487 31.3166 92.8884C30.2611 91.3442 29.6356 89.4677 29.6356 87.4544Z" fill="#E2D6FF"/>
</g>
<path d="M38.8618 76.8995C38.7641 76.8995 38.1582 76.8995 38.0604 76.8995H40.2301C39.761 76.8995 39.5655 77.6813 39.1355 80.2419C38.9596 81.2779 37.1808 81.2388 36.2621 81.9034C35.1871 82.6657 34.2097 84.3663 34.2097 85.7932L34.2684 85.5586C34.2684 85.8909 34.1902 85.2459 34.2684 85.5586C34.6789 83.7799 36.2035 82.4507 38.08 82.3139C38.1191 82.3139 38.1582 82.3139 38.1777 82.3139C38.2363 82.3139 38.3145 82.3139 38.3732 82.3139H42.5952V86.536C42.5952 88.6665 41.012 90.4257 38.94 90.7189C38.94 90.7385 38.94 90.7385 38.94 90.758C39.4678 92.6932 37.689 94.511 35.7735 93.905C32.0792 92.7322 29.1472 89.1357 28.7953 85.5977C28.7562 85.9105 28.7562 86.2428 28.7562 86.5555C28.7562 91.8722 33.0565 96.1724 38.3732 96.1724C39.9564 96.1724 41.4615 95.7815 42.7712 95.0974C42.8884 95.0387 42.9862 94.9801 43.1035 94.9215C43.553 94.6674 43.9635 94.3742 44.374 94.0614C44.4717 93.9832 44.5499 93.9246 44.6281 93.8464C44.6476 93.8269 44.6672 93.8073 44.6867 93.8073C44.7649 93.7291 44.8431 93.6705 44.9213 93.5923C44.9408 93.5728 44.9604 93.5532 44.9799 93.5336C45.0581 93.4555 45.1363 93.3773 45.2145 93.2991C45.234 93.2796 45.2731 93.2405 45.3122 93.2209C45.5077 93.1623 45.6641 93.045 45.7031 92.8691C45.7618 92.6736 45.8791 92.5368 45.9963 92.3999C46.055 92.3218 46.0941 92.2631 46.1527 92.1849C46.1918 92.1458 46.2114 92.0872 46.2505 92.0481C46.2895 91.9895 46.3482 91.9113 46.3873 91.8526C46.4264 91.794 46.4459 91.7549 46.485 91.6963C46.5241 91.6376 46.5632 91.5594 46.6023 91.5008C46.6414 91.4422 46.6805 91.3835 46.7 91.3249C46.7587 91.2271 46.8173 91.1294 46.8564 91.0317C46.8955 90.9535 46.9346 90.8753 46.9932 90.7776C47.0128 90.7189 47.0519 90.6603 47.0714 90.6017C47.1105 90.5235 47.1301 90.4648 47.1691 90.3866C47.1887 90.328 47.2278 90.2694 47.2473 90.2107C47.2864 90.1325 47.306 90.0544 47.3451 89.9762C47.3646 89.9175 47.3842 89.8589 47.4037 89.8002C47.4428 89.7221 47.4623 89.6243 47.4819 89.5461C47.5014 89.4875 47.521 89.4289 47.5405 89.3898C47.5796 89.2725 47.5992 89.1552 47.6383 89.0379C47.6383 89.0184 47.6578 88.9988 47.6578 88.9597C47.6969 88.8229 47.7165 88.6861 47.7555 88.5297C47.7751 88.4906 47.7751 88.432 47.7751 88.3929C47.7946 88.2952 47.8142 88.1974 47.8337 88.0997C47.8337 88.041 47.8533 87.9824 47.8533 87.9238C47.8728 87.826 47.8728 87.7283 47.8924 87.6306C47.8924 87.5719 47.9119 87.5133 47.9119 87.4547C47.9119 87.3569 47.9315 87.2396 47.9315 87.1419C47.9315 87.1028 47.9315 87.0442 47.9315 87.0051C47.9315 86.8487 47.951 86.6923 47.951 86.5555V84.6204V76.8995H38.8618Z" fill="#433860"/>
<path d="M38.3533 76.8995C33.0366 76.8995 28.7363 81.1997 28.7363 86.5164C28.7363 91.8331 33.0366 96.1334 38.3533 96.1334C43.6699 96.1334 47.9702 91.8331 47.9702 86.5164V76.8995H38.3533ZM42.5753 86.5164C42.5753 88.8425 40.6793 90.7385 38.3533 90.7385C36.0272 90.7385 34.1312 88.8425 34.1312 86.5164C34.1312 84.1904 36.0272 82.2943 38.3533 82.2943H42.5753V86.5164Z" stroke="#2C2543" stroke-width="1.1728" stroke-miterlimit="10" stroke-linecap="round" stroke-linejoin="round"/>
<path d="M62.5133 104.988C51.0589 104.988 41.7743 95.7031 41.7743 84.2487V73.0485H83.2718V84.2487C83.2718 95.7031 73.9676 104.988 62.5133 104.988Z" fill="#C4B2F0"/>
<g opacity="0.7">
<path opacity="0.7" d="M76.2548 94.5498H69.9021V88.1581L73.0882 84.5811L76.2548 88.1581V94.5498Z" fill="#A9A9A9" stroke="#8E7EB4" stroke-width="1.1728" stroke-miterlimit="10" stroke-linecap="round" stroke-linejoin="round"/>
<path opacity="0.7" d="M73.0881 73.0482V84.5807" stroke="#8E7EB4" stroke-width="1.1728" stroke-miterlimit="10" stroke-linecap="round" stroke-linejoin="round"/>
</g>
<path d="M53.6391 84.2487V73.0485H41.7548V84.2487C41.7548 95.7031 51.0394 104.988 62.4937 104.988C64.5657 104.988 66.5594 104.695 68.4359 104.128C59.894 101.567 53.6391 93.6311 53.6391 84.2487Z" fill="#8E7EB4"/>
<path d="M47.9901 84.2487V73.0485H41.7743V84.2487C41.7743 95.7031 51.0589 104.988 62.5133 104.988C63.5688 104.988 64.6048 104.91 65.6212 104.753C55.6524 103.268 47.9901 94.6475 47.9901 84.2487Z" fill="#8E7EB4"/>
<path opacity="0.7" d="M83.2718 73.2047H41.7743V74.5925H83.2718V73.2047Z" fill="#E2D6FF"/>
<path d="M62.5133 104.988C51.0589 104.988 41.7743 95.7031 41.7743 84.2487V73.0485H83.2718V84.2487C83.2718 95.7031 73.9676 104.988 62.5133 104.988Z" stroke="#2C2543" stroke-width="1.1728" stroke-miterlimit="10" stroke-linecap="round" stroke-linejoin="round"/>
<path d="M75.0813 93.3771H68.7286V86.9854L71.9147 83.4083L75.0813 86.9854V93.3771Z" fill="#00DBCE"/>
<path d="M75.0813 93.3771H68.7286V86.9854L71.9147 83.4083L75.0813 86.9854V93.3771Z" fill="#20FFAF" stroke="#2C2543" stroke-width="1.1728" stroke-miterlimit="10" stroke-linecap="round" stroke-linejoin="round"/>
<path d="M69.9014 88.1582L73.0094 84.6593L71.9147 83.4083L68.7286 86.9854V93.3771H69.9014V88.1582Z" fill="#A6FFDF"/>
<path d="M71.9148 73.0485V83.4082" stroke="#2C2543" stroke-width="1.1728" stroke-miterlimit="10" stroke-linecap="round" stroke-linejoin="round"/>
<path d="M60.4805 41.0898C58.9559 43.2791 58.0567 46.8952 58.0958 48.9085C58.2522 56.3362 63.2366 56.3558 64.0575 61.4379C64.2726 62.7866 63.8425 64.9563 62.5134 68.416" stroke="#2C2543" stroke-width="1.1728" stroke-miterlimit="10" stroke-linecap="round" stroke-linejoin="round"/>
<path d="M66.3245 47.8138C65.7576 48.8694 64.8194 51.3909 68.3573 55.5934C72.1884 60.1282 71.2893 64.7803 70.0579 68.4355" stroke="#2C2543" stroke-width="1.1728" stroke-miterlimit="10" stroke-linecap="round" stroke-linejoin="round"/>
<path d="M50.9613 49.7292C48.8894 54.6941 51.9582 57.9975 55.3788 61.5745C58.0567 64.3892 55.3593 68.9436 54.4797 69.8818" stroke="#2C2543" stroke-width="1.1728" stroke-miterlimit="10" stroke-linecap="round" stroke-linejoin="round"/>
<path d="M79.5386 76.7036V84.6786" stroke="#2C2543" stroke-width="1.1728" stroke-miterlimit="10" stroke-linecap="round" stroke-linejoin="round"/>
<path d="M75.0813 93.3771H68.7286V86.9854L71.9147 83.4083L75.0813 86.9854V93.3771Z" stroke="#2C2543" stroke-width="1.1728" stroke-miterlimit="10" stroke-linecap="round" stroke-linejoin="round"/>
</svg>
